<svg width="91" height="91" viewBox="0 0 91 91" fill="none" xmlns="http://www.w3.org/2000/svg">
<g id="account">
<path id="Vector" d="M45.5001 15.1667C49.5225 15.1667 53.3802 16.7646 56.2245 19.6089C59.0688 22.4532 60.6667 26.3109 60.6667 30.3333C60.6667 34.3558 59.0688 38.2135 56.2245 41.0578C53.3802 43.9021 49.5225 45.5 45.5001 45.5C41.4776 45.5 37.6199 43.9021 34.7756 41.0578C31.9313 38.2135 30.3334 34.3558 30.3334 30.3333C30.3334 26.3109 31.9313 22.4532 34.7756 19.6089C37.6199 16.7646 41.4776 15.1667 45.5001 15.1667ZM45.5001 53.0833C62.2593 53.0833 75.8334 59.8704 75.8334 68.25V75.8333H15.1667V68.25C15.1667 59.8704 28.7409 53.0833 45.5001 53.0833Z" fill="white"/>
</g>
</svg>
